<svg width="26" height="26" viewBox="0 0 26 26" fill="none" xmlns="http://www.w3.org/2000/svg">
<g clip-path="url(#clip0_69_809)">
<circle cx="13" cy="13" r="13" fill="#EFA550"/>
<path d="M3.71387 13.3396C3.42871 13.1945 3.42871 12.8075 3.71387 12.6624L12.7764 8.05225L12.7764 17.9497L3.71387 13.3396Z" fill="white"/>
<path d="M22.2861 12.6624C22.5713 12.8074 22.5713 13.1945 22.2861 13.3396L13.2236 17.9497V8.05225L22.2861 12.6624Z" fill="white"/>
<path d="M3.71387 13.3396C3.42871 13.1945 3.42871 12.8075 3.71387 12.6624L12.7764 8.05225L12.7764 17.9497L3.71387 13.3396Z" stroke="#EFA550" stroke-linejoin="round"/>
<path d="M22.2861 12.6624C22.5713 12.8074 22.5713 13.1945 22.2861 13.3396L13.2236 17.9497V8.05225L22.2861 12.6624Z" stroke="#EFA550" stroke-linejoin="round"/>
<path d="M13.5023 3.62777L13.0828 2.98124L12.6633 3.62777L9.4138 8.63648L8.36144 10.2585L10.0682 9.34998L13.0828 7.74521L16.0974 9.34998L17.8041 10.2585L16.7518 8.63648L13.5023 3.62777Z" fill="white" stroke="#EFA550"/>
<path d="M12.6633 22.372L13.0827 23.0185L13.5022 22.372L16.7517 17.3633L17.8041 15.7412L16.0973 16.6498L13.0827 18.2546L10.0681 16.6498L8.36138 15.7412L9.41374 17.3633L12.6633 22.372Z" fill="white" stroke="#EFA550"/>
</g>
<defs>
<clipPath id="clip0_69_809">
<rect width="26" height="26" fill="white"/>
</clipPath>
</defs>
</svg>
