<svg width="155" height="24" viewBox="0 0 155 24" fill="none" xmlns="http://www.w3.org/2000/svg">
<path d="M0.397705 23V1.99999H11.5277C12.9077 1.99999 14.1377 2.29999 15.2177 2.89999C16.3177 3.49999 17.1877 4.31999 17.8277 5.35999C18.4677 6.39999 18.7877 7.56999 18.7877 8.86999C18.7877 10.27 18.4477 11.52 17.7677 12.62C17.1077 13.7 16.2077 14.56 15.0677 15.2C13.9277 15.84 12.6377 16.16 11.1977 16.16H5.49771V23H0.397705ZM5.40771 11.69H10.3577C10.9377 11.69 11.4577 11.57 11.9177 11.33C12.3977 11.09 12.7777 10.77 13.0577 10.37C13.3377 9.94999 13.4777 9.47999 13.4777 8.95999C13.4777 8.43999 13.3377 7.99999 13.0577 7.63999C12.7777 7.27999 12.3977 6.99999 11.9177 6.79999C11.4577 6.59999 10.9377 6.49999 10.3577 6.49999H5.40771V11.69Z" fill="#243572"/>
<path d="M26.0123 23V0.799988H30.8123V23H26.0123Z" fill="#243572"/>
<path d="M45.6975 23.33C44.3575 23.33 43.2075 23.04 42.2475 22.46C41.2875 21.88 40.5475 21.04 40.0275 19.94C39.5075 18.82 39.2475 17.47 39.2475 15.89V7.06999H44.0475V15.08C44.0475 15.96 44.1675 16.7 44.4075 17.3C44.6675 17.9 45.0575 18.36 45.5775 18.68C46.0975 18.98 46.7575 19.13 47.5575 19.13C48.0975 19.13 48.6075 19.04 49.0875 18.86C49.5675 18.68 49.9975 18.43 50.3775 18.11C50.7575 17.79 51.0475 17.4 51.2475 16.94C51.4675 16.48 51.5775 15.97 51.5775 15.41V7.06999H56.3775V23H51.8775L51.6675 19.73L52.5375 19.37C52.2975 20.05 51.8575 20.7 51.2175 21.32C50.5975 21.92 49.8075 22.41 48.8475 22.79C47.9075 23.15 46.8575 23.33 45.6975 23.33Z" fill="#243572"/>
<path d="M73.1036 23.3C71.5436 23.3 70.1136 23.14 68.8136 22.82C67.5336 22.5 66.3836 22.06 65.3636 21.5C64.3436 20.94 63.4236 20.27 62.6036 19.49L65.2736 15.65C66.6136 16.91 67.9636 17.79 69.3236 18.29C70.7036 18.77 72.0636 19.01 73.4036 19.01C74.0236 19.01 74.6236 18.94 75.2036 18.8C75.8036 18.66 76.2936 18.44 76.6736 18.14C77.0736 17.84 77.2736 17.44 77.2736 16.94C77.2736 16.62 77.1736 16.35 76.9736 16.13C76.7736 15.89 76.5036 15.69 76.1636 15.53C75.8236 15.35 75.4236 15.21 74.9636 15.11C74.5236 15.01 74.0436 14.92 73.5236 14.84C73.0036 14.76 72.4636 14.68 71.9036 14.6C70.6236 14.42 69.4736 14.16 68.4536 13.82C67.4536 13.46 66.5936 13.02 65.8736 12.5C65.1736 11.96 64.6436 11.33 64.2836 10.61C63.9236 9.88999 63.7436 9.05999 63.7436 8.11999C63.7436 7.09999 63.9836 6.17999 64.4636 5.35999C64.9436 4.53999 65.6136 3.84999 66.4736 3.28999C67.3336 2.70999 68.3136 2.26999 69.4136 1.96999C70.5336 1.66999 71.7336 1.51999 73.0136 1.51999C74.4536 1.51999 75.7236 1.65999 76.8236 1.93999C77.9436 2.21999 78.9236 2.60999 79.7636 3.10999C80.6036 3.60999 81.3036 4.16999 81.8636 4.78999L79.1036 8.11999C78.5836 7.63999 77.9836 7.22999 77.3036 6.88999C76.6436 6.54999 75.9436 6.28999 75.2036 6.10999C74.4636 5.92999 73.7236 5.83999 72.9836 5.83999C72.2036 5.83999 71.5236 5.91999 70.9436 6.07999C70.3636 6.21999 69.9036 6.42999 69.5636 6.70999C69.2236 6.98999 69.0536 7.34999 69.0536 7.78999C69.0536 8.14999 69.1936 8.45999 69.4736 8.71999C69.7736 8.97999 70.1536 9.19999 70.6136 9.37999C71.0736 9.53999 71.5836 9.66999 72.1436 9.76999C72.7236 9.86999 73.2936 9.95999 73.8536 10.04C75.0136 10.2 76.1136 10.42 77.1536 10.7C78.2136 10.96 79.1436 11.32 79.9436 11.78C80.7636 12.24 81.3936 12.84 81.8336 13.58C82.2936 14.3 82.5236 15.23 82.5236 16.37C82.5236 17.83 82.1136 19.08 81.2936 20.12C80.4936 21.14 79.3836 21.93 77.9636 22.49C76.5636 23.03 74.9436 23.3 73.1036 23.3Z" fill="#243572"/>
<path d="M97.0315 23.3C95.2115 23.3 93.5815 22.94 92.1414 22.22C90.7215 21.5 89.6015 20.52 88.7815 19.28C87.9815 18.02 87.5815 16.6 87.5815 15.02C87.5815 13.42 87.9815 12 88.7815 10.76C89.6015 9.51999 90.7114 8.53999 92.1115 7.81999C93.5115 7.09999 95.1015 6.73999 96.8815 6.73999C98.5415 6.73999 100.071 6.97999 101.471 7.45999C102.871 7.93999 104.021 8.62999 104.921 9.52999L102.311 12.89C101.931 12.53 101.461 12.2 100.901 11.9C100.341 11.6 99.7615 11.36 99.1615 11.18C98.5615 11 97.9215 10.91 97.2415 10.91C96.2815 10.91 95.4314 11.09 94.6915 11.45C93.9715 11.79 93.4115 12.27 93.0115 12.89C92.6315 13.49 92.4415 14.2 92.4415 15.02C92.4415 15.8 92.6414 16.51 93.0415 17.15C93.4415 17.77 94.0014 18.25 94.7215 18.59C95.4415 18.93 96.2815 19.1 97.2415 19.1C98.0215 19.1 98.7215 19.03 99.3415 18.89C99.9615 18.73 100.521 18.53 101.021 18.29C101.521 18.03 101.961 17.76 102.341 17.48L104.921 20.81C103.961 21.53 102.801 22.13 101.441 22.61C100.101 23.07 98.6315 23.3 97.0315 23.3Z" fill="#243572"/>
<path d="M117.857 23.27C116.217 23.27 114.777 22.92 113.537 22.22C112.297 21.5 111.327 20.52 110.627 19.28C109.927 18.04 109.577 16.63 109.577 15.05C109.577 13.43 109.927 12 110.627 10.76C111.347 9.49999 112.327 8.51999 113.567 7.81999C114.827 7.09999 116.297 6.73999 117.977 6.73999C118.917 6.73999 119.787 6.85999 120.587 7.09999C121.387 7.33999 122.097 7.65999 122.717 8.05999C123.337 8.43999 123.837 8.86999 124.217 9.34999C124.617 9.82999 124.867 10.31 124.967 10.79L123.857 10.85V7.06999H128.627V23H123.767V18.83L124.787 19.04C124.707 19.56 124.467 20.07 124.067 20.57C123.667 21.07 123.157 21.53 122.537 21.95C121.917 22.35 121.207 22.67 120.407 22.91C119.607 23.15 118.757 23.27 117.857 23.27ZM119.117 19.22C120.117 19.22 120.967 19.05 121.667 18.71C122.387 18.35 122.937 17.86 123.317 17.24C123.717 16.6 123.917 15.87 123.917 15.05C123.917 14.19 123.717 13.45 123.317 12.83C122.937 12.21 122.387 11.72 121.667 11.36C120.967 11 120.117 10.82 119.117 10.82C118.157 10.82 117.317 11 116.597 11.36C115.897 11.72 115.347 12.21 114.947 12.83C114.547 13.45 114.347 14.19 114.347 15.05C114.347 15.87 114.547 16.6 114.947 17.24C115.347 17.86 115.897 18.35 116.597 18.71C117.317 19.05 118.157 19.22 119.117 19.22Z" fill="#243572"/>
<path d="M137.34 23V7.06999H141.9L142.08 10.97L140.88 11.3C141.14 10.5 141.59 9.75999 142.23 9.07999C142.89 8.37999 143.69 7.81999 144.63 7.39999C145.59 6.95999 146.64 6.73999 147.78 6.73999C149.22 6.73999 150.42 7.01999 151.38 7.57999C152.36 8.13999 153.1 8.92999 153.6 9.94999C154.12 10.95 154.38 12.11 154.38 13.43V23H149.58V14.21C149.58 13.51 149.43 12.9 149.13 12.38C148.85 11.86 148.44 11.46 147.9 11.18C147.38 10.9 146.77 10.77 146.07 10.79C145.47 10.79 144.93 10.9 144.45 11.12C143.97 11.32 143.55 11.59 143.19 11.93C142.85 12.27 142.59 12.64 142.41 13.04C142.25 13.44 142.17 13.84 142.17 14.24V23H139.77C139.07 23 138.52 23 138.12 23C137.72 23 137.46 23 137.34 23Z" fill="#243572"/>
</svg>
