<svg width="40" height="40" viewBox="0 0 40 40" fill="none" xmlns="http://www.w3.org/2000/svg">
<g clip-path="url(#clip0_1_460)">
<path d="M1.42305 20.6717C0.858984 20.3847 0.858983 19.6191 1.42305 19.3322L19.3489 10.2132L19.3489 29.7907L1.42305 20.6717Z" fill="#243572"/>
<path d="M38.1595 19.3322C38.7235 19.6191 38.7235 20.3847 38.1595 20.6717L20.2336 29.7906V10.2132L38.1595 19.3322Z" fill="#243572"/>
<path d="M1.42305 20.6717C0.858984 20.3847 0.858983 19.6191 1.42305 19.3322L19.3489 10.2132L19.3489 29.7907L1.42305 20.6717Z" stroke="white" stroke-linejoin="round"/>
<path d="M38.1595 19.3322C38.7235 19.6191 38.7235 20.3847 38.1595 20.6717L20.2336 29.7906V10.2132L38.1595 19.3322Z" stroke="white" stroke-linejoin="round"/>
<path d="M26.148 12.3487L27.8548 13.2573L26.8024 11.6352L20.3747 1.72787L19.9553 1.08133L19.5358 1.72787L13.1081 11.6352L12.0558 13.2573L13.7625 12.3487L19.9553 9.05213L26.148 12.3487Z" fill="#243572" stroke="white"/>
<path d="M13.7625 27.6513L12.0558 26.7427L13.1081 28.3648L19.5358 38.2721L19.9553 38.9187L20.3747 38.2721L26.8024 28.3648L27.8547 26.7427L26.148 27.6513L19.9553 30.9479L13.7625 27.6513Z" fill="#243572" stroke="white"/>
</g>
<defs>
<clipPath id="clip0_1_460">
<rect width="40" height="40" fill="white"/>
</clipPath>
</defs>
</svg>
