<svg width="40" height="40" viewBox="0 0 40 40" fill="none" xmlns="http://www.w3.org/2000/svg">
<path d="M1.42305 20.6716C0.858984 20.3847 0.858983 19.6191 1.42305 19.3322L19.3489 10.2132L19.3489 29.7906L1.42305 20.6716Z" fill="#243572"/>
<path d="M38.1595 19.3321C38.7235 19.6191 38.7235 20.3847 38.1595 20.6716L20.2336 29.7906V10.2132L38.1595 19.3321Z" fill="#243572"/>
<path d="M19.266 2.16958C19.5755 1.64446 20.335 1.64445 20.6445 2.16958L26.383 11.9074L19.9553 8.4857L13.5276 11.9074L19.266 2.16958Z" fill="#243572"/>
<path d="M20.6445 37.8304C20.335 38.3555 19.5755 38.3555 19.266 37.8304L13.5276 28.0926L19.9553 31.5143L26.3829 28.0926L20.6445 37.8304Z" fill="#243572"/>
</svg>
