<svg width="87" height="21" viewBox="0 0 87 21" fill="none" xmlns="http://www.w3.org/2000/svg">
<path d="M0 20.0001V0.400057H10.248C11.4613 0.400057 12.5627 0.680057 13.552 1.24006C14.5413 1.78139 15.3253 2.52806 15.904 3.48006C16.5013 4.43206 16.8 5.50539 16.8 6.70006C16.8 7.95072 16.492 9.07072 15.876 10.0601C15.2787 11.0494 14.4573 11.8427 13.412 12.4401C12.3667 13.0187 11.2093 13.3081 9.94 13.3081H4.2V20.0001H0ZM4.144 9.52806H9.352C9.912 9.52806 10.4253 9.40672 10.892 9.16406C11.3587 8.92139 11.7227 8.58539 11.984 8.15606C12.264 7.72673 12.404 7.25072 12.404 6.72806C12.404 6.22406 12.264 5.78539 11.984 5.41206C11.7227 5.02006 11.3587 4.72139 10.892 4.51606C10.4253 4.29206 9.912 4.18006 9.352 4.18006H4.144V9.52806Z" fill="#112E70"/>
<path d="M23.2969 20.0001V0.400057H27.4969V16.2201H38.5569V20.0001H23.2969Z" fill="#112E70"/>
<path d="M53.5342 20.1681C51.6862 20.1681 50.0622 19.7947 48.6622 19.0481C47.2622 18.2827 46.1703 17.2374 45.3863 15.9121C44.6023 14.5867 44.2103 13.0934 44.2103 11.4321V0.372057H48.4382V11.2641C48.4382 12.2534 48.6623 13.1307 49.1103 13.8961C49.5583 14.6614 50.1649 15.2681 50.9303 15.7161C51.6956 16.1454 52.5636 16.3601 53.5342 16.3601C54.5236 16.3601 55.4103 16.1454 56.1943 15.7161C56.9969 15.2681 57.6223 14.6614 58.0703 13.8961C58.5182 13.1307 58.7422 12.2534 58.7422 11.2641V0.372057H62.8303V11.4321C62.8303 13.0934 62.4383 14.5867 61.6543 15.9121C60.8703 17.2374 59.7783 18.2827 58.3783 19.0481C56.9782 19.7947 55.3636 20.1681 53.5342 20.1681Z" fill="#112E70"/>
<path d="M77.726 20.2801C76.3447 20.2801 75.0754 20.1401 73.918 19.8601C72.7607 19.5614 71.7154 19.1414 70.782 18.6001C69.8487 18.0587 69.018 17.4054 68.29 16.6401L70.586 13.4201C71.7994 14.6334 73.0127 15.4827 74.226 15.9681C75.4394 16.4534 76.69 16.6961 77.978 16.6961C78.6314 16.6961 79.266 16.6121 79.882 16.4441C80.5167 16.2761 81.03 16.0334 81.422 15.7161C81.8327 15.3801 82.038 14.9507 82.038 14.4281C82.038 14.0921 81.9354 13.8027 81.73 13.5601C81.5247 13.3174 81.254 13.1121 80.918 12.9441C80.582 12.7761 80.19 12.6361 79.742 12.5241C79.294 12.3934 78.818 12.2907 78.314 12.2161C77.8287 12.1227 77.3247 12.0481 76.802 11.9921C75.626 11.8054 74.5714 11.5534 73.638 11.2361C72.7234 10.9187 71.9394 10.5174 71.286 10.0321C70.6327 9.52806 70.138 8.94939 69.802 8.29606C69.4847 7.62406 69.326 6.85872 69.326 6.00006C69.326 5.08539 69.5407 4.25472 69.97 3.50806C70.3994 2.76139 70.9967 2.12672 71.762 1.60406C72.5274 1.08139 73.414 0.68939 74.422 0.428057C75.4487 0.148057 76.55 0.00805664 77.726 0.00805664C79.014 0.00805664 80.162 0.138724 81.17 0.400057C82.178 0.66139 83.074 1.03472 83.858 1.52006C84.642 1.98672 85.286 2.54672 85.79 3.20006L83.382 5.97206C82.9154 5.48672 82.3647 5.06672 81.73 4.71206C81.114 4.35739 80.4607 4.08672 79.77 3.90006C79.0794 3.71339 78.3794 3.62006 77.67 3.62006C76.886 3.62006 76.1954 3.70406 75.598 3.87206C75.0194 4.02139 74.5527 4.25472 74.198 4.57206C73.862 4.87072 73.694 5.25339 73.694 5.72006C73.694 6.09339 73.8247 6.42006 74.086 6.70006C74.3474 6.98006 74.6927 7.21339 75.122 7.40006C75.5514 7.56806 76.046 7.71739 76.606 7.84806C77.166 7.96006 77.754 8.06272 78.37 8.15606C79.4527 8.32406 80.4794 8.53872 81.45 8.80006C82.4207 9.04272 83.2794 9.37872 84.026 9.80806C84.7727 10.2187 85.3514 10.7601 85.762 11.4321C86.1727 12.0854 86.378 12.9067 86.378 13.8961C86.378 15.2214 86.0047 16.3601 85.258 17.3121C84.53 18.2641 83.522 19.0014 82.234 19.5241C80.946 20.0281 79.4434 20.2801 77.726 20.2801Z" fill="#112E70"/>
</svg>
